<svg width="1280" height="720" xmlns="http://www.w3.org/2000/svg" xmlns:xlink="http://www.w3.org/1999/xlink" overflow="hidden"><defs><clipPath id="clip0"><rect x="0" y="0" width="1280" height="720"/></clipPath></defs><g clip-path="url(#clip0)"><rect x="0" y="0" width="1280" height="720" fill="#FFFFFF"/><rect x="391.5" y="473.5" width="450" height="172" stroke="#2F528F" stroke-width="1.33333" stroke-miterlimit="8" fill="#A6A6A6"/><text font-family="Calibri,Calibri_MSFontService,sans-serif" font-weight="400" font-size="72" transform="translate(529.967 583)">Agent</text><path d="M392.333 562.385 204.641 562.385 204.641 146.582 371.004 146.483 371.008 154.483 208.643 154.58 212.641 150.58 212.641 558.385 208.641 554.385 392.333 554.385ZM366.717 138.583 391 150 367.297 162.576Z" fill="#C00000"/><path d="M841 163 986.231 163 986.231 519.039 862.332 519.019 862.334 511.019 982.231 511.038 978.231 515.038 978.231 167 982.231 171 841 171ZM866.276 527.038 842.333 514.923 866.391 503.038Z" fill="#4472C4"/><path d="M0 4-0.846089 4 3.15391 0 3.15391 213.897-0.846089 209.897 414.769 209.897 410.769 213.897 410.769 20.6666 418.769 20.6666 418.769 217.897-4.84609 217.897-4.84609-4 0-4ZM402.769 24.6667 414.769 0.666667 426.769 24.6667Z" fill="#548235" transform="matrix(1.83697e-16 1 1 -1.83697e-16 840 144)"/><rect x="391.5" y="81.5001" width="450" height="172" stroke="#2F528F" stroke-width="1.33333" stroke-miterlimit="8" fill="#F2F2F2"/><text font-family="Calibri,Calibri_MSFontService,sans-serif" font-weight="400" font-size="72" transform="translate(428.343 191)">Environment<tspan fill="#C00000" font-size="48" x="-369.536" y="147">Action</tspan><tspan fill="#C00000" font-weight="700" font-size="48" x="-323.896" y="205">a</tspan><tspan fill="#C00000" font-weight="700" font-size="32" x="-300.676" y="216">t</tspan><tspan fill="#0070C0" font-size="48" x="362.447" y="147">Reward</tspan><tspan fill="#0070C0" font-weight="700" font-size="48" x="416.727" y="205">R</tspan><tspan fill="#0070C0" font-weight="700" font-size="32" x="443.727" y="216">t</tspan><tspan fill="#385723" font-size="48" x="669.859" y="147">State</tspan><tspan fill="#385723" font-weight="700" font-size="48" x="702.586" y="205">S</tspan><tspan fill="#385723" font-weight="700" font-size="32" x="725.253" y="216">t</tspan></text></g></svg>